# Blender v2.81 (sub 16) OBJ File: ''
# www.blender.org
mtllib SmallArrow.mtl
o Cone
v 0.000000 1.999000 -0.149999
v 0.000000 2.399000 0.000001
v 0.088168 1.999000 -0.121352
v 0.142658 1.999000 -0.046352
v 0.142658 1.999000 0.046354
v 0.088168 1.999000 0.121354
v 0.000000 1.999000 0.150001
v -0.088168 1.999000 0.121354
v -0.142658 1.999000 0.046354
v -0.142658 1.999000 -0.046352
v -0.088168 1.999000 -0.121352
v 0.047553 2.000000 -0.015450
v 0.029389 2.000000 -0.040450
v 0.000000 2.000000 -0.049999
v -0.029389 2.000000 -0.040450
v -0.047298 1.999500 -0.015787
v -0.047510 1.999500 0.015745
v -0.028935 1.999500 0.040513
v 0.000000 2.000000 0.050001
v 0.029389 2.000000 0.040452
v 0.047553 2.000000 0.015452
v 0.000000 -0.000018 -0.050000
v 0.029389 -0.000018 -0.040451
v 0.047553 -0.000018 -0.015451
v 0.047553 -0.000018 0.015451
v 0.029389 -0.000018 0.040451
v 0.000000 -0.000018 0.050000
v -0.029389 -0.000018 0.040451
v -0.047553 -0.000018 0.015451
v -0.047553 -0.000018 -0.015451
v -0.029389 -0.000018 -0.040451
vt 0.250000 0.490000
vt 0.250000 0.250000
vt 0.391068 0.444164
vt 0.478254 0.324164
vt 0.478254 0.175836
vt 0.391068 0.055836
vt 0.250000 0.010000
vt 0.108932 0.055836
vt 0.021746 0.175836
vt 0.021746 0.324164
vt 0.108932 0.444164
vt 0.750000 0.490000
vt 0.891068 0.444164
vt 0.978254 0.324164
vt 0.826687 0.274461
vt 0.797665 0.315001
vt 0.748704 0.330016
vt 0.703044 0.316129
vt 0.674732 0.275801
vt 0.674054 0.224342
vt 0.521746 0.175836
vt 0.521746 0.324164
vt 0.608932 0.444164
vt 0.704432 0.185083
vt 0.750611 0.167785
vt 0.799238 0.183782
vt 0.826253 0.225201
vt 0.978254 0.175836
vt 0.891068 0.055836
vt 0.750000 0.010000
vt 0.608932 0.055836
vt 1.000000 0.500000
vt 1.000000 1.000000
vt 0.900000 1.000000
vt 0.900000 0.500000
vt 0.800000 1.000000
vt 0.800000 0.500000
vt 0.700000 1.000000
vt 0.700000 0.500000
vt 0.600000 1.000000
vt 0.600000 0.500000
vt 0.500000 1.000000
vt 0.500000 0.500000
vt 0.400000 1.000000
vt 0.400000 0.500000
vt 0.300000 1.000000
vt 0.300000 0.500000
vt 0.200000 1.000000
vt 0.200000 0.500000
vt 0.100000 1.000000
vt 0.100000 0.500000
vt -0.000000 1.000000
vt -0.000000 0.500000
vt 0.750000 0.490000
vt 0.891068 0.444164
vt 0.978254 0.324164
vt 0.978254 0.175836
vt 0.891068 0.055836
vt 0.750000 0.010000
vt 0.608932 0.055836
vt 0.521746 0.175836
vt 0.521746 0.324164
vt 0.608932 0.444164
vn 0.2911 0.3359 -0.8958
vn 0.7620 0.3359 -0.5536
vn 0.9419 0.3359 0.0000
vn 0.7620 0.3359 0.5536
vn 0.2911 0.3359 0.8958
vn -0.2911 0.3359 0.8958
vn -0.7620 0.3359 0.5536
vn -0.9419 0.3359 0.0000
vn -0.7620 0.3359 -0.5536
vn -0.2911 0.3359 -0.8958
vn 0.0011 -1.0000 0.0055
vn -0.0006 -1.0000 0.0002
vn -0.0024 -1.0000 -0.0051
vn 0.3090 0.0000 -0.9511
vn 0.8090 0.0000 -0.5878
vn 1.0000 -0.0000 0.0000
vn 0.8090 -0.0000 0.5878
vn 0.3090 -0.0000 0.9511
vn -0.3103 0.0000 0.9506
vn -0.8045 0.0000 0.5939
vn -1.0000 0.0001 -0.0034
vn -0.8091 0.0000 -0.5877
vn -0.3090 0.0000 -0.9511
vn 0.0000 -1.0000 -0.0000
usemtl None
s 1
f 1/1/1 2/2/1 3/3/1
f 3/3/2 2/2/2 4/4/2
f 4/4/3 2/2/3 5/5/3
f 5/5/4 2/2/4 6/6/4
f 6/6/5 2/2/5 7/7/5
f 7/7/6 2/2/6 8/8/6
f 8/8/7 2/2/7 9/9/7
f 9/9/8 2/2/8 10/10/8
f 10/10/9 2/2/9 11/11/9
f 11/11/10 2/2/10 1/1/10
f 1/12/11 3/13/11 4/14/12 12/15/12 13/16/11 14/17/11 15/18/11 16/19/11 17/20/12 9/21/12 10/22/11 11/23/11
f 9/21/12 17/20/12 18/24/13 19/25/13 20/26/13 21/27/13 12/15/12 4/14/12 5/28/13 6/29/13 7/30/13 8/31/13
f 22/32/14 14/33/14 13/34/14 23/35/14
f 23/35/15 13/34/15 12/36/15 24/37/15
f 24/37/16 12/36/16 21/38/16 25/39/16
f 25/39/17 21/38/17 20/40/17 26/41/17
f 26/41/18 20/40/18 19/42/18 27/43/18
f 27/43/19 19/42/19 18/44/19 28/45/19
f 28/45/20 18/44/20 17/46/20 29/47/20
f 29/47/21 17/46/21 16/48/21 30/49/21
f 30/49/22 16/48/22 15/50/22 31/51/22
f 31/51/23 15/50/23 14/52/23 22/53/23
f 22/54/24 23/55/24 24/56/24 25/57/24 26/58/24 27/59/24 28/60/24 29/61/24 30/62/24 31/63/24
